<?xml version="1.0" encoding="iso-8859-1"?>
<!-- Generator: Adobe Illustrator 19.0.0, SVG Export Plug-In . SVG Version: 6.00 Build 0)  -->
<svg version="1.1" id="Layer_1" xmlns="http://www.w3.org/2000/svg" xmlns:xlink="http://www.w3.org/1999/xlink" x="0px" y="0px"
	 viewBox="0 0 455 455" style="enable-background:new 0 0 455 455;" xml:space="preserve">
<g>
	<path d="M348.624,174.454H232.112c-42.311,0-76.611,34.3-76.611,76.611v27.324h269.735v-27.324
		C425.235,208.753,390.935,174.454,348.624,174.454z"/>
	<rect x="155.5" y="308.389" width="269.735" height="40"/>
	<path d="M232.112,455h116.512c42.311,0,76.611-34.3,76.611-76.611H155.5C155.5,420.7,189.8,455,232.112,455z"/>
	<path d="M125.5,378.389l0-127.324c0-58.786,47.826-106.611,106.611-106.611h19.182l4.416-71.499h-97.972V30h97.973V0h-97.973
		c-16.542,0-30,13.458-30,30v42.955H29.765L53.363,455h104.619c-0.42-0.407-0.841-0.811-1.256-1.226
		C136.59,433.638,125.5,406.866,125.5,378.389z"/>
</g>
<g>
</g>
<g>
</g>
<g>
</g>
<g>
</g>
<g>
</g>
<g>
</g>
<g>
</g>
<g>
</g>
<g>
</g>
<g>
</g>
<g>
</g>
<g>
</g>
<g>
</g>
<g>
</g>
<g>
</g>
</svg>
